<svg width="40" height="40" viewBox="0 0 40 40" fill="none" xmlns="http://www.w3.org/2000/svg">
<g clip-path="url(#clip0_367_392)">
<path d="M31.25 40L21.25 40C20.9185 40 20.6005 39.8683 20.3661 39.6339C20.1317 39.3995 20 39.0815 20 38.75L20 36.25C20 35.2554 19.6049 34.3016 18.9017 33.5984C18.1984 32.8951 17.2446 32.5 16.25 32.5C15.2554 32.5 14.3016 32.8951 13.5983 33.5984C12.8951 34.3016 12.5 35.2554 12.5 36.25L12.5 38.75C12.5 39.0815 12.3683 39.3995 12.1339 39.6339C11.8995 39.8683 11.5815 40 11.25 40L1.25 40C0.918479 40 0.600536 39.8683 0.366116 39.6339C0.131695 39.3995 -8.99683e-10 39.0815 -8.92051e-10 38.75L-2.01431e-10 8.75C-1.93799e-10 8.41848 0.131695 8.10054 0.366116 7.86612C0.600536 7.6317 0.918479 7.5 1.25 7.5L10 7.5L10 6.25C10 4.5924 10.6585 3.00269 11.8306 1.83058C13.0027 0.65848 14.5924 3.35928e-10 16.25 3.74086e-10C17.9076 4.12244e-10 19.4973 0.65848 20.6694 1.83058C21.8415 3.00269 22.5 4.5924 22.5 6.25L22.5 7.5L31.25 7.5C31.5815 7.5 31.8995 7.6317 32.1339 7.86612C32.3683 8.10054 32.5 8.41848 32.5 8.75L32.5 17.5L33.75 17.5C35.4076 17.5 36.9973 18.1585 38.1694 19.3306C39.3415 20.5027 40 22.0924 40 23.75C40 24.5708 39.8383 25.3835 39.5242 26.1418C39.2102 26.9001 38.7498 27.5891 38.1694 28.1694C37.5891 28.7498 36.9001 29.2102 36.1418 29.5242C35.3835 29.8383 34.5708 30 33.75 30L32.5 30L32.5 38.75C32.5 39.0815 32.3683 39.3995 32.1339 39.6339C31.8995 39.8683 31.5815 40 31.25 40ZM22.5 37.5L30 37.5L30 28.75C30 28.4185 30.1317 28.1005 30.3661 27.8661C30.6005 27.6317 30.9185 27.5 31.25 27.5L33.75 27.5C34.7446 27.5 35.6984 27.1049 36.4016 26.4017C37.1049 25.6984 37.5 24.7446 37.5 23.75C37.5 22.7554 37.1049 21.8016 36.4016 21.0983C35.6984 20.3951 34.7446 20 33.75 20L31.25 20C30.9185 20 30.6005 19.8683 30.3661 19.6339C30.1317 19.3995 30 19.0815 30 18.75L30 10L21.25 10C20.9185 10 20.6005 9.8683 20.3661 9.63388C20.1317 9.39946 20 9.08152 20 8.75L20 6.25C20 5.25544 19.6049 4.30161 18.9017 3.59835C18.1984 2.89509 17.2446 2.5 16.25 2.5C15.2554 2.5 14.3016 2.89509 13.5983 3.59835C12.8951 4.30161 12.5 5.25544 12.5 6.25L12.5 8.75C12.5 9.08152 12.3683 9.39946 12.1339 9.63388C11.8995 9.8683 11.5815 10 11.25 10L2.5 10L2.5 37.5L10 37.5L10 36.25C10 34.5924 10.6585 33.0027 11.8306 31.8306C13.0027 30.6585 14.5924 30 16.25 30C17.9076 30 19.4973 30.6585 20.6694 31.8306C21.8415 33.0027 22.5 34.5924 22.5 36.25L22.5 37.5Z" fill="white" stroke="white"/>
</g>
<defs>
<clipPath id="clip0_367_392">
<rect width="40" height="40" fill="white"/>
</clipPath>
</defs>
</svg>
