<svg width="45" height="46" viewBox="0 0 45 46" fill="none" xmlns="http://www.w3.org/2000/svg">
<g clip-path="url(#clip0_367_412)">
<path fill-rule="evenodd" clip-rule="evenodd" d="M21.2088 3.64187C21.9331 2.95222 23.0708 2.95222 23.7951 3.64187L38.7951 17.9276L43.4826 22.3919C44.2325 23.1059 44.2613 24.2928 43.5471 25.0428C42.8331 25.7926 41.6463 25.8215 40.8963 25.1073L39.377 23.6604L39.377 37.8121C39.377 39.8833 37.6981 41.5621 35.627 41.5621L26.252 41.5621L18.752 41.5621L9.37696 41.5621C7.30589 41.5621 5.62696 39.8833 5.62696 37.8121L5.62696 23.6604L4.10757 25.1073C3.35768 25.8215 2.17086 25.7926 1.4567 25.0428C0.742537 24.2928 0.771483 23.1059 1.52135 22.3919L6.20884 17.9276L21.2088 3.64187ZM9.37696 20.0889L9.37696 37.8121L16.877 37.8121L16.877 28.4371C16.877 25.3304 19.3953 22.8121 22.502 22.8121C25.6086 22.8121 28.127 25.3304 28.127 28.4371L28.127 37.8121L35.627 37.8121L35.627 20.0889L22.502 7.58891L9.37696 20.0889ZM24.377 37.8121L24.377 28.4371C24.377 27.4016 23.5375 26.5621 22.502 26.5621C21.4664 26.5621 20.627 27.4016 20.627 28.4371L20.627 37.8121L24.377 37.8121Z" fill="white"/>
</g>
<defs>
<clipPath id="clip0_367_412">
<rect width="45" height="45" fill="white" transform="translate(0.00195312 0.312134)"/>
</clipPath>
</defs>
</svg>
