<svg width="45" height="45" viewBox="0 0 45 45" fill="none" xmlns="http://www.w3.org/2000/svg">
<path fill-rule="evenodd" clip-rule="evenodd" d="M17.0862 14.6663C17.7146 12.8187 19.7912 11.25 22.5004 11.25C25.8501 11.25 28.1254 13.576 28.1254 15.9375C28.1254 18.299 25.8501 20.625 22.5004 20.625C21.4649 20.625 20.6254 21.4644 20.6254 22.5L20.6254 26.25C20.6254 27.2856 21.4649 28.125 22.5004 28.125C23.536 28.125 24.3754 27.2856 24.3754 26.25L24.3754 24.2029C28.506 23.4377 31.8754 20.1949 31.8754 15.9375C31.8754 11.0503 27.4352 7.5 22.5004 7.5C18.4147 7.5 14.7516 9.88472 13.5359 13.4587C13.2025 14.4391 13.7269 15.5042 14.7073 15.8376C15.6877 16.1711 16.7527 15.6467 17.0862 14.6663ZM22.5004 37.5C24.0539 37.5 25.3129 36.2407 25.3129 34.6875C25.3129 33.1343 24.0539 31.875 22.5004 31.875C20.9472 31.875 19.6879 33.1343 19.6879 34.6875C19.6879 36.2407 20.9472 37.5 22.5004 37.5Z" fill="white"/>
</svg>
